<svg xmlns="http://www.w3.org/2000/svg" width="390" height="844" viewBox="0 0 390 844">
  <rect width="390" height="844" fill="#f8fafc"/>
  <rect x="0" y="0" width="390" height="88" fill="#1d4ed8"/>
  <text x="24" y="48" font-family="Arial, sans-serif" font-size="22" font-weight="700" fill="#fff">ZeKin 学生打卡</text>
  <text x="24" y="72" font-family="Arial, sans-serif" font-size="13" fill="#bfdbfe">今日任务 · 查寝 / 上课 / 实习</text>

  <rect x="18" y="108" width="354" height="124" rx="14" fill="#ffffff" stroke="#dbeafe"/>
  <text x="34" y="136" font-family="Arial, sans-serif" font-size="16" font-weight="700" fill="#0f172a">今日状态</text>
  <rect x="34" y="154" width="94" height="52" rx="10" fill="#dcfce7"/>
  <text x="50" y="176" font-family="Arial, sans-serif" font-size="13" fill="#166534">查寝</text>
  <text x="50" y="195" font-family="Arial, sans-serif" font-size="15" font-weight="700" fill="#166534">已提交</text>
  <rect x="148" y="154" width="94" height="52" rx="10" fill="#fef3c7"/>
  <text x="164" y="176" font-family="Arial, sans-serif" font-size="13" fill="#92400e">上课</text>
  <text x="164" y="195" font-family="Arial, sans-serif" font-size="15" font-weight="700" fill="#92400e">待打卡</text>
  <rect x="262" y="154" width="94" height="52" rx="10" fill="#e0f2fe"/>
  <text x="278" y="176" font-family="Arial, sans-serif" font-size="13" fill="#075985">实习</text>
  <text x="278" y="195" font-family="Arial, sans-serif" font-size="15" font-weight="700" fill="#075985">未开始</text>

  <text x="24" y="274" font-family="Arial, sans-serif" font-size="18" font-weight="700" fill="#0f172a">提交打卡</text>
  <rect x="18" y="292" width="354" height="330" rx="14" fill="#ffffff" stroke="#e2e8f0"/>
  <text x="34" y="322" font-family="Arial, sans-serif" font-size="14" fill="#475569">打卡类型</text>
  <rect x="34" y="336" width="86" height="36" rx="18" fill="#1d4ed8"/>
  <text x="59" y="359" font-family="Arial, sans-serif" font-size="14" font-weight="700" fill="#ffffff">查寝</text>
  <rect x="132" y="336" width="86" height="36" rx="18" fill="#eff6ff" stroke="#bfdbfe"/>
  <text x="157" y="359" font-family="Arial, sans-serif" font-size="14" fill="#1d4ed8">上课</text>
  <rect x="230" y="336" width="86" height="36" rx="18" fill="#eff6ff" stroke="#bfdbfe"/>
  <text x="255" y="359" font-family="Arial, sans-serif" font-size="14" fill="#1d4ed8">实习</text>

  <text x="34" y="404" font-family="Arial, sans-serif" font-size="14" fill="#475569">思政心得 / 实习日志</text>
  <rect x="34" y="418" width="322" height="110" rx="10" fill="#f8fafc" stroke="#cbd5e1"/>
  <text x="50" y="448" font-family="Arial, sans-serif" font-size="13" fill="#94a3b8">请输入 10-300 字内容...</text>

  <rect x="34" y="548" width="148" height="44" rx="10" fill="#f1f5f9"/>
  <text x="54" y="575" font-family="Arial, sans-serif" font-size="14" fill="#334155">定位：已获取</text>
  <rect x="200" y="548" width="156" height="44" rx="10" fill="#f1f5f9"/>
  <text x="220" y="575" font-family="Arial, sans-serif" font-size="14" fill="#334155">照片：可选</text>
  <rect x="34" y="644" width="322" height="52" rx="14" fill="#1d4ed8"/>
  <text x="154" y="677" font-family="Arial, sans-serif" font-size="17" font-weight="700" fill="#fff">提交打卡</text>

  <text x="24" y="744" font-family="Arial, sans-serif" font-size="15" font-weight="700" fill="#0f172a">最近记录</text>
  <text x="24" y="770" font-family="Arial, sans-serif" font-size="13" fill="#64748b">06-22 查寝 · 教师待审核 · 定位正常</text>
  <rect x="0" y="794" width="390" height="50" fill="#ffffff" stroke="#e2e8f0"/>
  <text x="60" y="824" font-family="Arial, sans-serif" font-size="13" fill="#1d4ed8">首页</text>
  <text x="178" y="824" font-family="Arial, sans-serif" font-size="13" font-weight="700" fill="#0f172a">打卡</text>
  <text x="298" y="824" font-family="Arial, sans-serif" font-size="13" fill="#64748b">我的</text>
</svg>
